<svg xmlns="http://www.w3.org/2000/svg" xmlns:xlink="http://www.w3.org/1999/xlink" width="299.089" height="23.161" viewBox="0 0 299.089 23.161">
  <defs>
    <clipPath id="clip-path">
      <rect id="Rectangle_2626" data-name="Rectangle 2626" width="299.089" height="23.161" fill="#fb9100"/>
    </clipPath>
  </defs>
  <g id="Group_163138" data-name="Group 163138" transform="translate(0 0)">
    <g id="Group_163137" data-name="Group 163137" transform="translate(0 0)" clip-path="url(#clip-path)">
      <path id="Path_3" data-name="Path 3" d="M6.493,9.447c2.37.021,4.74-.1,7.108-.171.964-.027,1.929-.073,2.891-.117l12.739-.568q7.617-.339,15.232-.722L66.218,6.78c1.662-.083,3.326-.14,4.988-.209q6.339-.27,12.677-.535L96.559,5.5c1.653-.069,3.309-.159,4.963-.208q10.114-.286,20.227-.571,6.217-.174,12.437-.351c1.622-.045,3.249-.114,4.873-.135q9.774-.128,19.552-.264l19.294-.259c1.7-.023,3.4-.012,5.095-.018l12.6-.044q9.793-.033,19.587-.067c2.134-.009,4.271.013,6.406.019q6.7.021,13.411.042l1.109.005q-15.1.183-30.192.379L193.312,4.2c-1.812.024-3.628.03-5.44.072q-9.119.213-18.238.443l-21.081.511c-1.181.029-2.361.089-3.541.139l-11.226.464q-11.385.469-22.771.941c-1.124.047-2.245.118-3.368.187q-5.56.344-11.121.689Q86.563,8.259,76.6,8.876c-1.831.115-3.66.276-5.488.415l-12.757.962c-5.4.409-10.81.8-16.214,1.227q-11.283.881-22.56,1.767-2.706.213-5.412.423c-3.233.253-6.456.62-9.682.939-.341.033-.631.232-.631.566a.609.609,0,0,0,.631.567q1.768.069,3.537.137a1.9,1.9,0,0,0-.231.883,2.215,2.215,0,0,0,2.313,2.077c9.221-.516,18.438-1.076,27.668-1.471l24.036-1.026,26.574-1.136,8.367-.358c.8-.034,1.61-.08,2.415-.1q21.4-.511,42.809-1.008l22.877-.538q4.134-.1,8.264-.16,21.895-.307,43.787-.614l18.76-.27c5.34-.077,10.681-.11,16.017-.289l13.23-.449c2.2-.074,4.406-.122,6.6-.246q7.508-.424,15.017-.87l-.011.017a1.714,1.714,0,0,0-.21,1.441,1.916,1.916,0,0,0,.957,1.116,2.2,2.2,0,0,0,1.606.188q1.635-.582,3.26-1.193l-.067.026.24-.091.279-.105-.1.038,1.731-.655c.6-.226,1.21-.454,1.809-.691.655-.256,1.282-.568,1.914-.87a2.048,2.048,0,0,0,1.151-1.8,1.926,1.926,0,0,0-.318-1.052,2.221,2.221,0,0,0-1.388-.958c-.559-.088-1.117-.154-1.679-.219a3.579,3.579,0,0,0-.377-.019c-.38,0-.776.048-1.138.071-.85.054-1.695.167-2.545.223l-2.079.134q-2.8.183-5.6.364c-.482.032-.964.057-1.447.086a1.547,1.547,0,0,0,.375-.615,1.541,1.541,0,0,0,.147-.577c.02-.142.042-.285.065-.426a1.453,1.453,0,0,0-.1-.531l.146-.058a2.239,2.239,0,0,0,.839-.755,1.915,1.915,0,0,0,0-2.123l-.366-.426a2.427,2.427,0,0,0-1.035-.541A6.84,6.84,0,0,0,280.35,0c-.623,0-1.251.039-1.868.046L275.789.07c-1.27.012-2.54.028-3.809.034q-5.032.023-10.063.046c-3.156.016-6.312.013-9.468.012q-4.3,0-8.6.006c-11.435.045-22.867.061-34.3.165l-25.72.232q-5.749.056-11.5.162l-25.772.489-7.35.14c-1.42.027-2.842.094-4.263.142l-25.471.866-7.775.265c-1.453.049-2.906.136-4.359.205q-12.649.61-25.3,1.219-6.532.314-13.057.692Q47.8,5.376,36.626,6.01c-6.455.363-12.913.678-19.369,1.017l-3.069.16c-1.652.087-3.309.146-4.963.212-1.467.059-2.942.095-4.414.061a.981.981,0,0,0-.944-.591c-.949.068-1.9.16-2.843.251a1.048,1.048,0,0,0-.99.675A.922.922,0,0,0,.753,8.928c.411.089.821.181,1.234.265a10.375,10.375,0,0,0,1.243.139c1.085.086,2.175.106,3.263.115m260.875-3.21,4.158,0a2.017,2.017,0,0,0,.559.729c-.536.033-1.072.065-1.609.083l-3.029.1q-6.617.224-13.231.445c-2.019.068-4.037.168-6.056.2l-9.465.134q-10.813.155-21.628.308-20.992.3-41.984.6c-10.022.143-20.04.424-30.059.66q-22.644.54-45.29,1.077c-3.027.073-6.053.246-9.076.376q-12.854.554-25.706,1.106L39.717,13.13l-2.336.1q3.4-.246,6.8-.481,11.876-.813,23.752-1.629l8.3-.568c1.426-.1,2.855-.159,4.283-.238l24.7-1.342c1.61-.089,3.22-.2,4.831-.261L117,8.47l25.467-.886,5.6-.2c.492-.017.984-.018,1.476-.027l3.935-.071Q166.244,7.054,179,6.823c3.92-.072,7.838-.155,11.759-.184,12.649-.092,25.3-.209,37.944-.26,12.887-.053,25.775-.133,38.662-.142" transform="translate(0 0)" fill="#fb9100"/>
      <path id="Path_4" data-name="Path 4" d="M21.556,22.593a.637.637,0,1,0-.633.568.61.61,0,0,0,.633-.568" transform="translate(2.33 0)" fill="#fb9100"/>
    </g>
  </g>
</svg>
