<svg xmlns="http://www.w3.org/2000/svg" xmlns:xlink="http://www.w3.org/1999/xlink" width="40" height="40" viewBox="0 0 40 40">
  <defs>
    <clipPath id="clip-path">
      <rect id="Rectangle_2654" data-name="Rectangle 2654" width="25.896" height="21.612" transform="translate(-1 -1)" fill="none" stroke="#fff" stroke-width="2"/>
    </clipPath>
  </defs>
  <g id="Group_163177" data-name="Group 163177" transform="translate(-695 -3311)">
    <circle id="Ellipse_9" data-name="Ellipse 9" cx="20" cy="20" r="20" transform="translate(695 3311)" fill="#1b263b" opacity="0.6"/>
    <g id="Group_163164" data-name="Group 163164" transform="translate(704 3323)">
      <g id="Group_163163" data-name="Group 163163" transform="translate(-1 -1)" clip-path="url(#clip-path)">
        <path id="Path_15" data-name="Path 15" d="M16.416,0c-3,0-4.9,3.344-5.353,3.344C10.67,3.344,8.845,0,5.711,0A5.824,5.824,0,0,0,.01,5.558,6.68,6.68,0,0,0,1.254,9.772c1.561,2.368,8.385,8.07,9.82,8.07,1.466,0,8.228-5.681,9.8-8.07a6.679,6.679,0,0,0,1.244-4.214A5.824,5.824,0,0,0,16.416,0" transform="translate(0.885 0.885)" fill="none" stroke="#fff" stroke-width="2"/>
      </g>
    </g>
  </g>
</svg>
