<svg xmlns="http://www.w3.org/2000/svg" xmlns:xlink="http://www.w3.org/1999/xlink" width="74.77" height="9.415" viewBox="0 0 74.77 9.415">
  <defs>
    <clipPath id="clip-path">
      <rect id="Rectangle_2626" data-name="Rectangle 2626" width="74.77" height="9.415" fill="#fb9100"/>
    </clipPath>
  </defs>
  <g id="Group_163171" data-name="Group 163171" transform="translate(0 0)">
    <g id="Group_163137" data-name="Group 163137" transform="translate(0 0)" clip-path="url(#clip-path)">
      <path id="Path_3" data-name="Path 3" d="M1.623,3.84c.593.009,1.185-.042,1.777-.07.241-.011.482-.03.723-.048l3.185-.231q1.9-.138,3.808-.293l5.439-.443c.416-.034.831-.057,1.247-.085l3.169-.217,3.169-.217c.413-.028.827-.065,1.241-.085l5.057-.232,3.109-.143c.406-.018.812-.046,1.218-.055q2.443-.052,4.888-.107l4.823-.105c.424-.009.849,0,1.274-.007L48.9,1.485q2.448-.013,4.9-.027c.533,0,1.068.005,1.6.008l3.353.017.277,0q-3.774.074-7.548.154l-3.152.068c-.453.01-.907.012-1.36.029q-2.28.087-4.56.18l-5.27.208c-.3.012-.59.036-.885.057l-2.806.189-5.693.383c-.281.019-.561.048-.842.076l-2.78.28q-2.49.251-4.98.5c-.458.047-.915.112-1.372.169l-3.189.391c-1.351.166-2.7.327-4.053.5L4.9,5.385l-1.353.172c-.808.1-1.614.252-2.42.382a.209.209,0,0,0-.158.23c0,.13.072.225.158.23l.884.056a1.169,1.169,0,0,0-.058.359c0,.439.263.872.578.844,2.305-.21,4.609-.437,6.917-.6l6.009-.417L22.1,6.181l2.092-.146c.2-.014.4-.033.6-.04q5.351-.208,10.7-.41l5.719-.219q1.033-.04,2.066-.065l10.946-.25,4.69-.11c1.335-.031,2.67-.045,4-.117l3.307-.183c.55-.03,1.1-.05,1.651-.1q1.877-.173,3.754-.354l0,.007a1.079,1.079,0,0,0-.052.586.789.789,0,0,0,.239.454.367.367,0,0,0,.4.076q.409-.237.815-.485l-.017.011.06-.037.07-.043-.025.015.433-.266c.151-.092.3-.185.452-.281s.321-.231.479-.354a.968.968,0,0,0,.288-.731,1.16,1.16,0,0,0-.079-.428.646.646,0,0,0-.347-.389c-.14-.036-.279-.063-.42-.089a.554.554,0,0,0-.094-.008,2.8,2.8,0,0,0-.285.029c-.212.022-.424.068-.636.091l-.52.054-1.4.148c-.12.013-.241.023-.362.035a.77.77,0,0,0,.094-.25.956.956,0,0,0,.037-.235c.005-.058.011-.116.016-.173a.922.922,0,0,0-.026-.216l.037-.024a.784.784,0,0,0,.21-.307,1.154,1.154,0,0,0,.08-.432,1.153,1.153,0,0,0-.08-.431L70.9.344a.59.59,0,0,0-.259-.22A1.111,1.111,0,0,0,70.086,0c-.156,0-.313.016-.467.019l-.673.01c-.317,0-.635.011-.952.014L65.477.061c-.789.007-1.578.005-2.367,0-.717,0-1.434,0-2.151,0C58.1.087,55.243.093,52.384.135L45.955.23Q44.517.252,43.08.3l-6.443.2L34.8.551c-.355.011-.71.038-1.066.058L27.366.961l-1.944.108c-.363.02-.727.055-1.09.083l-6.325.5q-1.633.127-3.264.281l-5.588.514c-1.614.148-3.228.276-4.842.413l-.767.065c-.413.035-.827.059-1.241.086a10.743,10.743,0,0,1-1.1.025c-.037-.139-.13-.252-.236-.24-.237.028-.474.065-.711.1a.3.3,0,0,0-.247.274.419.419,0,0,0,.179.461c.1.036.205.074.309.108a1.646,1.646,0,0,0,.311.057,7.117,7.117,0,0,0,.816.047m65.217-1.3h1.04a.9.9,0,0,0,.14.3c-.134.013-.268.026-.4.034l-.757.041-3.308.181c-.5.028-1.009.068-1.514.08l-2.366.054-5.407.125q-5.248.124-10.5.242c-2.505.058-5.01.172-7.515.268l-11.322.438c-.757.03-1.513.1-2.269.153l-6.426.45-6.309.441-.584.041q.85-.1,1.7-.2l5.938-.662,2.074-.231c.356-.04.714-.065,1.071-.1L26.3,3.647c.4-.036.8-.083,1.208-.106l1.74-.1,6.367-.36,1.4-.08c.123-.007.246-.007.369-.011l.984-.029,6.38-.19c.98-.029,1.96-.063,2.94-.075,3.162-.037,6.324-.085,9.486-.106,3.222-.022,6.444-.054,9.665-.058" transform="translate(0 0)" fill="#fb9100"/>
      <path id="Path_4" data-name="Path 4" d="M20.607,22.256c0-.126-.072-.231-.158-.231s-.158.105-.158.231.072.231.158.231.158-.105.158-.231" transform="translate(-14.635 -13.072)" fill="#fb9100"/>
    </g>
  </g>
</svg>
