<svg xmlns="http://www.w3.org/2000/svg" xmlns:xlink="http://www.w3.org/1999/xlink" width="179.514" height="138.157" viewBox="0 0 179.514 138.157">
  <defs>
    <clipPath id="clip-path">
      <rect id="Rectangle_2656" data-name="Rectangle 2656" width="157.629" height="38.564" fill="#fff"/>
    </clipPath>
  </defs>
  <g id="Group_163196" data-name="Group 163196" transform="translate(-634.547 -3150.349)">
    <g id="Group_163168" data-name="Group 163168" transform="translate(652.652 3150.349) rotate(28)">
      <g id="Group_163167" data-name="Group 163167" clip-path="url(#clip-path)">
        <path id="Path_17" data-name="Path 17" d="M1.889,157.376h-.03Q1.13,157.318.4,157.25a.483.483,0,0,1-.4-.537.457.457,0,0,1,.471-.456q.723.067,1.446.124a.481.481,0,0,1,.406.531.465.465,0,0,1-.435.464" transform="translate(0 -130.32)" fill="#fff"/>
        <path id="Path_18" data-name="Path 18" d="M130.535,38.565c-.268,0-.541-.013-.809-.039a.483.483,0,0,1-.4-.537.457.457,0,0,1,.471-.455,7.442,7.442,0,0,0,2.729-.239.435.435,0,0,1,.53.362.506.506,0,0,1-.317.6,8.035,8.035,0,0,1-2.2.3m-3.579-.79a.39.39,0,0,1-.161-.035,9.518,9.518,0,0,1-2.6-1.742.547.547,0,0,1-.059-.7.4.4,0,0,1,.615-.067,8.661,8.661,0,0,0,2.369,1.584.523.523,0,0,1,.245.647.441.441,0,0,1-.406.314m8.291-.868a.422.422,0,0,1-.358-.213A.543.543,0,0,1,135,36a9.561,9.561,0,0,0,1.976-2.175.4.4,0,0,1,.612-.094.546.546,0,0,1,.083.7,10.5,10.5,0,0,1-2.17,2.388.4.4,0,0,1-.25.09M122.62,33.6a.431.431,0,0,1-.383-.257,8.935,8.935,0,0,1-.835-2.886c-.017-.149-.031-.3-.041-.449a.482.482,0,0,1,.4-.536.46.46,0,0,1,.47.456q.014.2.037.4A7.849,7.849,0,0,0,123,32.864a.536.536,0,0,1-.171.677.394.394,0,0,1-.211.062m16.117-1.841a.387.387,0,0,1-.163-.036.524.524,0,0,1-.242-.648,15,15,0,0,0,.724-3.065.449.449,0,0,1,.5-.42.492.492,0,0,1,.368.565,16.1,16.1,0,0,1-.778,3.291.441.441,0,0,1-.405.312m-67.926-3.9a.469.469,0,0,1-.436-.486.474.474,0,0,1,.426-.509c.909-.024,1.869-.093,2.854-.2a.457.457,0,0,1,.478.446.485.485,0,0,1-.392.545c-1.006.114-1.988.184-2.919.208h-.01m-2.89-.075h-.032a22.319,22.319,0,0,1-2.918-.432.5.5,0,0,1-.347-.583.444.444,0,0,1,.511-.4,21.536,21.536,0,0,0,2.816.417.481.481,0,0,1,.4.533.465.465,0,0,1-.435.462m-31.885-.415a.5.5,0,0,1,0-1c.958-.006,1.928-.026,2.882-.058a.47.47,0,0,1,.45.483.475.475,0,0,1-.424.513c-.961.033-1.938.053-2.9.059Zm-2.892-.023h-.008c-.965-.021-1.942-.056-2.9-.1a.477.477,0,0,1-.417-.519.462.462,0,0,1,.455-.476c.953.048,1.922.083,2.88.1a.5.5,0,0,1-.008,1m43.421-.119a.458.458,0,0,1-.431-.42.494.494,0,0,1,.363-.57c.491-.089,1-.189,1.511-.3.434-.092.877-.19,1.316-.291a.441.441,0,0,1,.515.389.5.5,0,0,1-.341.587c-.444.1-.892.2-1.331.295-.519.109-1.034.211-1.533.3a.392.392,0,0,1-.069.006m45.536-.02a.391.391,0,0,1-.122-.02.511.511,0,0,1-.3-.617,12.534,12.534,0,0,1,1.266-3.114.406.406,0,0,1,.6-.146.542.542,0,0,1,.128.689,11.47,11.47,0,0,0-1.159,2.849.449.449,0,0,1-.419.36m-80.283-.036a.466.466,0,0,1-.435-.471.478.478,0,0,1,.412-.524c.959-.06,1.926-.134,2.875-.22a.456.456,0,0,1,.47.457.482.482,0,0,1-.4.536c-.956.087-1.931.162-2.9.222h-.024m5.766-.523a.462.462,0,0,1-.434-.446.486.486,0,0,1,.389-.547c.656-.078,1.32-.164,1.973-.254q.442-.061.887-.129a.452.452,0,0,1,.491.428.49.49,0,0,1-.375.56q-.45.068-.9.13c-.658.091-1.327.177-1.988.256l-.046,0m14.674-.127a.388.388,0,0,1-.141-.027c-.468-.182-.933-.385-1.382-.6a15.007,15.007,0,0,1-1.337-.74.536.536,0,0,1-.175-.676.411.411,0,0,1,.592-.2,14.176,14.176,0,0,0,1.263.7c.429.209.873.4,1.32.577a.517.517,0,0,1,.273.632.445.445,0,0,1-.413.338m19.975-.605a.452.452,0,0,1-.424-.38.505.505,0,0,1,.321-.6c.926-.257,1.862-.538,2.781-.836a.432.432,0,0,1,.539.343.511.511,0,0,1-.3.615c-.93.3-1.876.586-2.813.846a.387.387,0,0,1-.1.014m-28.919-.169a.456.456,0,0,1-.429-.406.5.5,0,0,1,.349-.581c1-.214,1.915-.449,2.789-.717a.434.434,0,0,1,.535.352.509.509,0,0,1-.308.61c-.9.275-1.83.515-2.855.734a.387.387,0,0,1-.081.009m86.271-.454a.464.464,0,0,1-.435-.459,15.146,15.146,0,0,0-.54-3.113.515.515,0,0,1,.28-.628.427.427,0,0,1,.55.319,16.251,16.251,0,0,1,.581,3.344.482.482,0,0,1-.4.535l-.035,0M87.8,24.113a.446.446,0,0,1-.415-.344.516.516,0,0,1,.28-.628c.911-.338,1.825-.7,2.717-1.074a.424.424,0,0,1,.561.3.521.521,0,0,1-.259.64c-.9.379-1.827.745-2.749,1.087a.386.386,0,0,1-.135.025m-28.91-.108a.442.442,0,0,1-.407-.318.522.522,0,0,1,.25-.644,19.062,19.062,0,0,0,2.562-1.366.409.409,0,0,1,.594.191.537.537,0,0,1-.167.678,19.854,19.854,0,0,1-2.674,1.426.387.387,0,0,1-.157.034m-1.683-.626a.4.4,0,0,1-.274-.11A17.661,17.661,0,0,1,54.8,20.915a.548.548,0,0,1,.046-.7.4.4,0,0,1,.616.053,16.693,16.693,0,0,0,2.019,2.228.547.547,0,0,1,.066.7.418.418,0,0,1-.34.185m36.021-1.544a.44.44,0,0,1-.4-.308.524.524,0,0,1,.237-.65q.493-.232.984-.472c.533-.26,1.075-.533,1.656-.834a.417.417,0,0,1,.578.248.528.528,0,0,1-.217.659c-.586.3-1.133.579-1.672.842q-.5.242-1,.477a.39.39,0,0,1-.166.038m31.953-.121a.413.413,0,0,1-.321-.161.548.548,0,0,1,.025-.7,12.654,12.654,0,0,1,1.386-1.259c.329-.257.676-.5,1.033-.736a.409.409,0,0,1,.6.186.537.537,0,0,1-.163.679c-.336.218-.663.451-.972.693a11.764,11.764,0,0,0-1.287,1.169.407.407,0,0,1-.3.132m53.38-.67a.385.385,0,0,1-.141-.027c-.9-.353-1.825-.693-2.738-1.011a.514.514,0,0,1-.29-.622.43.43,0,0,1,.545-.331c.922.322,1.853.666,2.765,1.022a.517.517,0,0,1,.272.632.445.445,0,0,1-.413.337M63.9,20.758a.417.417,0,0,1-.338-.182.547.547,0,0,1,.06-.7A15.168,15.168,0,0,0,64.91,18.5a10.742,10.742,0,0,0,.662-.889.4.4,0,0,1,.612-.094.546.546,0,0,1,.083.7,11.834,11.834,0,0,1-.722.97,16.081,16.081,0,0,1-1.373,1.458.4.4,0,0,1-.277.113M98.5,19.125a.435.435,0,0,1-.394-.283.531.531,0,0,1,.2-.664q1.2-.655,2.391-1.321l.209-.116a.414.414,0,0,1,.584.23.532.532,0,0,1-.2.666l-.209.116q-1.2.665-2.4,1.324a.391.391,0,0,1-.188.049m74.528-.01a.387.387,0,0,1-.114-.018c-.921-.284-1.86-.555-2.79-.806a.5.5,0,0,1-.325-.6.438.438,0,0,1,.525-.37c.94.253,1.888.527,2.818.814a.509.509,0,0,1,.307.611.45.45,0,0,1-.421.368m-35.226-.03a.427.427,0,0,1-.372-.237,15.578,15.578,0,0,0-1.334-2.062l-.271.05a.448.448,0,0,1-.5-.411.508.508,0,0,1,.291-.552.515.515,0,0,1,.127-.257.4.4,0,0,1,.617.021l.069.083.125-.022c.665-.114,1.342-.221,2.01-.317a.454.454,0,0,1,.488.432.489.489,0,0,1-.378.557c-.52.075-1.045.156-1.566.243a16.533,16.533,0,0,1,1.066,1.715.54.54,0,0,1-.143.685.4.4,0,0,1-.228.074m-7.658-.672a.443.443,0,0,1-.41-.327.52.52,0,0,1,.26-.638,22.608,22.608,0,0,1,2.821-.952.438.438,0,0,1,.526.37.5.5,0,0,1-.324.6,21.875,21.875,0,0,0-2.723.918.388.388,0,0,1-.15.03M53.466,18.4a.43.43,0,0,1-.381-.253,16.31,16.31,0,0,1-1.171-3.131.512.512,0,0,1,.3-.619.431.431,0,0,1,.542.337,15.237,15.237,0,0,0,1.094,2.924.537.537,0,0,1-.166.678.394.394,0,0,1-.214.064M167.4,17.6a.383.383,0,0,1-.087-.01c-.936-.215-1.888-.416-2.83-.6a.5.5,0,0,1-.358-.574.447.447,0,0,1,.5-.408c.952.183,1.913.386,2.858.6a.5.5,0,0,1,.341.587.455.455,0,0,1-.427.4m-5.7-1.1a.4.4,0,0,1-.059,0c-.944-.146-1.906-.277-2.858-.388a.486.486,0,0,1-.39-.546.454.454,0,0,1,.479-.445c.962.113,1.933.245,2.886.392a.491.491,0,0,1,.374.56.46.46,0,0,1-.432.431m-57.987-.253a.436.436,0,0,1-.394-.284.53.53,0,0,1,.206-.664c.974-.529,1.835-.985,2.634-1.393a.416.416,0,0,1,.577.251.528.528,0,0,1-.22.658c-.792.4-1.648.857-2.615,1.383a.391.391,0,0,1-.187.049m37.785-.238a.464.464,0,0,1-.434-.452.485.485,0,0,1,.394-.542c.959-.1,1.934-.187,2.9-.253a.459.459,0,0,1,.462.467.479.479,0,0,1-.41.527c-.955.065-1.921.15-2.87.25l-.041,0m14.447-.182h-.031c-.954-.076-1.921-.136-2.874-.177a.476.476,0,0,1-.42-.516.465.465,0,0,1,.453-.479c.963.041,1.939.1,2.9.179a.481.481,0,0,1,.405.532.465.465,0,0,1-.435.463m-8.673-.213a.468.468,0,0,1-.436-.485.474.474,0,0,1,.425-.511c.965-.03,1.94-.042,2.907-.036a.5.5,0,0,1,0,1h0c-.957-.006-1.923.006-2.878.036h-.012m-79.912-.057a.39.39,0,0,1-.168-.039.525.525,0,0,1-.234-.652,14.99,14.99,0,0,0,.764-3.052.448.448,0,0,1,.5-.412.494.494,0,0,1,.361.571,16.093,16.093,0,0,1-.82,3.278.44.44,0,0,1-.4.306m66.517-1.26a.4.4,0,0,1-.258-.1,16.989,16.989,0,0,0-2.405-1.674.533.533,0,0,1-.193-.669.413.413,0,0,1,.587-.22,17.85,17.85,0,0,1,2.528,1.76.545.545,0,0,1,.095.7.421.421,0,0,1-.353.2m-24.88-.73a.441.441,0,0,1-.405-.312.524.524,0,0,1,.242-.648l.253-.115c.84-.381,1.674-.732,2.48-1.045a.426.426,0,0,1,.554.311.517.517,0,0,1-.273.632c-.792.307-1.613.653-2.439,1.027l-.25.114a.391.391,0,0,1-.163.036M51.874,12.122a.468.468,0,0,1-.436-.485q0-.168,0-.337a14.142,14.142,0,0,1,.082-1.516A10.955,10.955,0,0,1,51.8,8.222a.431.431,0,0,1,.542-.337.512.512,0,0,1,.3.619,9.828,9.828,0,0,0-.257,1.4,13.01,13.01,0,0,0-.075,1.394q0,.155,0,.31a.474.474,0,0,1-.425.511h-.012m62.6-.663a.451.451,0,0,1-.422-.37.508.508,0,0,1,.31-.609c.968-.294,1.93-.54,2.857-.73a.444.444,0,0,1,.507.4.5.5,0,0,1-.352.578c-.9.186-1.841.425-2.787.712a.391.391,0,0,1-.113.017m14.263-.131a.385.385,0,0,1-.135-.025,17.1,17.1,0,0,0-2.744-.766.5.5,0,0,1-.359-.573.447.447,0,0,1,.5-.409,17.887,17.887,0,0,1,2.871.8.515.515,0,0,1,.28.628.446.446,0,0,1-.415.344m-8.575-1.021a.464.464,0,0,1-.435-.458.482.482,0,0,1,.4-.536c.713-.066,1.425-.1,2.115-.1h.006c.273,0,.549.005.819.016a.475.475,0,0,1,.422.514.465.465,0,0,1-.451.481c-.263-.01-.53-.014-.8-.015-.666,0-1.354.032-2.044.1l-.036,0m-51.906-1.2a.463.463,0,0,1-.434-.452,11.287,11.287,0,0,0-.658-3.041.526.526,0,0,1,.23-.653.418.418,0,0,1,.573.262,12.4,12.4,0,0,1,.724,3.34.484.484,0,0,1-.394.542l-.041,0M53.474,5.9a.4.4,0,0,1-.248-.088.543.543,0,0,1-.111-.693,11.835,11.835,0,0,1,2.041-2.516.4.4,0,0,1,.614.07.547.547,0,0,1-.061.7,10.871,10.871,0,0,0-1.876,2.312.423.423,0,0,1-.36.215M65.956,3.2a.41.41,0,0,1-.306-.143,6.78,6.78,0,0,0-1.117-1,5.879,5.879,0,0,0-1.148-.641.52.52,0,0,1-.26-.639.424.424,0,0,1,.56-.3A6.713,6.713,0,0,1,65,1.208a7.685,7.685,0,0,1,1.266,1.139.549.549,0,0,1,.005.7.41.41,0,0,1-.311.149M57.9,1.78a.439.439,0,0,1-.4-.3.526.526,0,0,1,.231-.653A8.129,8.129,0,0,1,60.661,0a.461.461,0,0,1,.465.464.48.48,0,0,1-.407.53,7.35,7.35,0,0,0-2.653.745.391.391,0,0,1-.171.04" transform="translate(-25.476 0)" fill="#fff"/>
        <path id="Path_19" data-name="Path 19" d="M1069.468,129.212a.387.387,0,0,1-.162-.036c-.445-.2-.9-.4-1.35-.6a.522.522,0,0,1-.253-.643.422.422,0,0,1,.563-.288c.455.2.914.4,1.363.606a.524.524,0,0,1,.244.647.441.441,0,0,1-.406.314" transform="translate(-912.276 -106.431)" fill="#fff"/>
      </g>
    </g>
    <g id="Group_163170" data-name="Group 163170" transform="matrix(0.883, 0.469, -0.469, 0.883, 785.066, 3244)">
      <path id="Subtraction_2" data-name="Subtraction 2" d="M10.613,0h0l-.224.226L6.518,6.374a1,1,0,0,0-.058.118L6.452,6.5c-.04.018-.08.037-.118.059L.015,10.635,0,10.649l2.9,2.907,5.445-.534,5.341,5.514-13.2,4.98L4.014,27.03l16.28-1.557,3.134,3.311c.225.251.88.917,1.023,1.06,2,2,3.953,3.1,5.513,3.1a2.815,2.815,0,0,0,1.554-.441l.868-.87a3.48,3.48,0,0,0,.107-3.281,11.854,11.854,0,0,0-2.75-3.86c-.114-.114-.793-.787-1.056-1.025l-3.3-3.14L26.891,3.9,23.383.387,18.455,13.722,12.946,8.439l.5-5.6L10.614,0Z" transform="translate(0 0)" fill="#cecece"/>
    </g>
  </g>
</svg>
